<?xml version="1.0" encoding="UTF-8"?>
<svg xmlns="http://www.w3.org/2000/svg" xmlns:xlink="http://www.w3.org/1999/xlink" width="16px" height="16px" viewBox="0 0 16 16" version="1.1">
<g id="surface1">
<path style=" stroke:none;fill-rule:nonzero;fill:rgb(0%,0%,0%);fill-opacity:1;" d="M 14 10.5 L 5.671875 10.5 L 2.171875 2.5 L 0 2.5 L 0 1.5 L 2.828125 1.5 L 6.328125 9.5 L 14 9.5 Z M 14 10.5 "/>
<path style=" stroke:none;fill-rule:nonzero;fill:rgb(0%,0%,0%);fill-opacity:1;" d="M 16 3.5 L 14 8.5 L 7 8.5 L 5 3.5 Z M 16 3.5 "/>
<path style=" stroke:none;fill-rule:nonzero;fill:rgb(0%,0%,0%);fill-opacity:1;" d="M 9 13 C 9 13.828125 8.328125 14.5 7.5 14.5 C 6.671875 14.5 6 13.828125 6 13 C 6 12.171875 6.671875 11.5 7.5 11.5 C 8.328125 11.5 9 12.171875 9 13 Z M 9 13 "/>
<path style=" stroke:none;fill-rule:nonzero;fill:rgb(0%,0%,0%);fill-opacity:1;" d="M 14 13 C 14 13.828125 13.328125 14.5 12.5 14.5 C 11.671875 14.5 11 13.828125 11 13 C 11 12.171875 11.671875 11.5 12.5 11.5 C 13.328125 11.5 14 12.171875 14 13 Z M 14 13 "/>
</g>
</svg>
